<svg width="30" height="27" viewBox="0 0 30 27" fill="none" xmlns="http://www.w3.org/2000/svg">
<path d="M6.83334 26.6666V12.6199L0 6.38794V23.699C0 25.6774 0.833334 26.6666 2.5 26.6666" fill="#4285F4"/>
<path d="M6.5 12.5211L15 20.138L23.5 12.5211V2.8269L15 10.4438L6.5 2.8269" fill="#EA4335"/>
<path d="M23.1665 26.6666V12.6199L29.9998 6.38794V23.699C29.9998 25.6774 29.1665 26.6666 27.4998 26.6666" fill="#34A853"/>
<path d="M0 6.58585L6.83334 12.8178V3.12364L4.33334 0.848467C2.08334 -1.22886 0 0.848467 0 3.4204" fill="#C5221F"/>
<path d="M29.9998 6.58585L23.1665 12.8178V3.12364L25.6665 0.848467C27.9165 -1.22886 29.9998 0.848467 29.9998 3.4204" fill="#FBBC04"/>
</svg>
