<svg width="30" height="30" viewBox="0 0 30 30" fill="none" xmlns="http://www.w3.org/2000/svg">
<path d="M26.8498 0.460785C26.6084 -0.153595 25.742 -0.153595 25.5007 0.460785L24.8551 2.10369C24.7814 2.29126 24.6335 2.43975 24.4466 2.51373L22.8097 3.16168C22.1975 3.40398 22.1975 4.27347 22.8097 4.51577L24.4466 5.16374C24.6335 5.23772 24.7814 5.38619 24.8551 5.57376L25.5007 7.21667C25.742 7.83105 26.6084 7.83105 26.8498 7.21668L27.4954 5.57376C27.569 5.38619 27.7169 5.23772 27.9038 5.16374L29.5407 4.51577C30.1529 4.27347 30.1529 3.40398 29.5407 3.16168L27.9038 2.51373C27.7169 2.43975 27.569 2.29126 27.4954 2.10369L26.8498 0.460785Z" fill="black"/>
<path d="M21.049 9.19442C20.8075 8.58005 19.9412 8.58005 19.6997 9.19442L19.4644 9.79344C19.3908 9.98101 19.2429 10.1295 19.056 10.2035L18.4591 10.4397C17.847 10.682 17.847 11.5515 18.4591 11.7938L19.056 12.03C19.2429 12.104 19.3908 12.2525 19.4644 12.4401L19.6997 13.0391C19.9412 13.6535 20.8075 13.6535 21.049 13.0391L21.2843 12.4401C21.358 12.2525 21.5059 12.104 21.6928 12.03L22.2896 11.7938C22.9018 11.5515 22.9018 10.682 22.2896 10.4397L21.6928 10.2035C21.5059 10.1295 21.358 9.98101 21.2843 9.79344L21.049 9.19442Z" fill="black"/>
<path d="M14.9999 30C23.284 30 29.9997 23.2842 29.9997 15.0001C29.9997 14.3061 28.9595 14.1913 28.6005 14.7853C26.8931 17.611 23.792 19.5001 20.2498 19.5001C14.865 19.5001 10.4999 15.135 10.4999 9.75016C10.4999 6.20786 12.389 3.10679 15.2147 1.39937C15.8087 1.04044 15.6939 0.000244141 14.9999 0.000244141C6.71567 0.000244141 0 6.71591 0 15.0001C0 23.2842 6.71567 30 14.9999 30Z" fill="black"/>
</svg>
