<svg width="30" height="30" viewBox="0 0 30 30" fill="none" xmlns="http://www.w3.org/2000/svg">
<path d="M15.0017 22.5021C19.1442 22.5021 22.5024 19.144 22.5024 15.0014C22.5024 10.8589 19.1442 7.50073 15.0017 7.50073C10.8592 7.50073 7.50098 10.8589 7.50098 15.0014C7.50098 19.144 10.8592 22.5021 15.0017 22.5021Z" fill="black"/>
<path fill-rule="evenodd" clip-rule="evenodd" d="M5.62564 14.9976C5.62564 13.9612 4.78702 13.1226 3.75059 13.1226H1.87506C0.83862 13.1226 0 13.9612 0 14.9976C0 16.0341 0.83862 16.8727 1.87506 16.8727H3.75012C4.78702 16.8727 5.62564 16.0341 5.62564 14.9976Z" fill="black"/>
<path fill-rule="evenodd" clip-rule="evenodd" d="M5.7208 21.6269L4.39326 22.9549C3.66058 23.6871 3.66058 24.874 4.39326 25.6062C5.12547 26.3385 6.31238 26.3385 7.04506 25.6062L8.37307 24.2787C9.10528 23.5465 9.10528 22.3591 8.37307 21.6269C7.63992 20.8942 6.45348 20.8942 5.7208 21.6269Z" fill="black"/>
<path fill-rule="evenodd" clip-rule="evenodd" d="M15.002 24.3738C13.9656 24.3738 13.127 25.2124 13.127 26.2488V28.1244C13.127 29.1608 13.9656 29.9994 15.002 29.9994C16.0384 29.9994 16.8771 29.1608 16.8771 28.1244L16.8752 26.2488C16.8771 25.2124 16.0366 24.3738 15.002 24.3738Z" fill="black"/>
<path fill-rule="evenodd" clip-rule="evenodd" d="M24.2811 21.6289C23.5503 20.8948 22.3634 20.8948 21.6312 21.627C20.899 22.3593 20.899 23.5466 21.6312 24.2789L22.9573 25.6045C23.6895 26.3405 24.8764 26.3367 25.6087 25.6045C26.3409 24.8723 26.3427 23.6873 25.6087 22.9532L24.2811 21.6289Z" fill="black"/>
<path fill-rule="evenodd" clip-rule="evenodd" d="M28.1285 13.1226L26.2493 13.1263C25.2166 13.1226 24.3779 13.9612 24.3779 14.9976C24.3742 16.0341 25.2166 16.8727 26.2493 16.8727H28.1248C29.165 16.8764 29.9998 16.0341 29.9998 14.9976C30.0017 13.9631 29.165 13.1226 28.1285 13.1226Z" fill="black"/>
<path fill-rule="evenodd" clip-rule="evenodd" d="M24.2811 8.37039L25.6068 7.04426C26.3446 6.31017 26.339 5.12514 25.6068 4.39246C24.876 3.6579 23.6895 3.6579 22.9573 4.39058L21.6312 5.72C20.899 6.44893 20.899 7.63537 21.6312 8.36805C22.3596 9.10495 23.5503 9.1012 24.2811 8.37039Z" fill="black"/>
<path fill-rule="evenodd" clip-rule="evenodd" d="M15.002 5.62144C16.0366 5.62894 16.8771 4.78282 16.8771 3.75013V1.87507C16.8771 0.834882 16.0384 1.25284e-05 15.002 1.25284e-05C13.9656 -0.00373759 13.127 0.834882 13.127 1.87179L13.1307 3.7506C13.127 4.78282 13.9656 5.62144 15.002 5.62144Z" fill="black"/>
<path fill-rule="evenodd" clip-rule="evenodd" d="M5.72475 8.36834C6.45368 9.10055 7.63684 9.10055 8.37139 8.36646C9.10923 7.63941 9.10548 6.44921 8.37514 5.71841L7.04901 4.39274C6.31305 3.65631 5.12989 3.66194 4.39721 4.39274C3.6589 5.12355 3.6589 6.30999 4.39158 7.04267L5.72475 8.36834Z" fill="black"/>
</svg>
